<svg xmlns="http://www.w3.org/2000/svg" id="Layer_1" data-name="Layer 1" viewBox="0 0 240.01 32.9"><defs><style>.cls-1{fill:#fff;}</style></defs><title>footer-logo</title><g id="Group_236" data-name="Group 236"><g id="Group_58" data-name="Group 58"><path id="Path_57" data-name="Path 57" class="cls-1" d="M8.7,13.5l8.9,0.1a0.35,0.35,0,0,0,.2-0.1L17.7,0H0V13.6H8.6l0.1-.1h0ZM32.1,32.3l-0.4.1a0.37,0.37,0,0,1-.3-0.1H30.9c-0.1,0-.2-0.3-0.3-0.3l-0.4-.1H29.9l-0.6-.4c-0.1,0-.1-0.1-0.2-0.1H28.7l-0.3-.3-0.2-.6c0-.1-0.2-0.4-0.2-0.5l-0.3-.3-0.3-.5-0.1-.7L27,28.3l0.1-.2,0.1-.3c0-.1-0.1-0.2-0.1-0.3l-0.6-.2a0.34,0.34,0,0,1-.3-0.2l-0.3-.8a1,1,0,0,0-.3-0.1l-0.1-.5-0.3-.1L25,25.4a0.38,0.38,0,0,1-.2-0.2l-0.1-.7L24.4,24,24,23.5l-0.1-.7c0-.1-0.3-0.1-0.3-0.2l-0.2-.3c-0.1-.1-0.2.1-0.2,0l-0.1-.2c0-.1-0.2-0.3-0.2-0.4l-0.6-.3-0.1-.2a0.1,0.1,0,0,1-.1-0.1h0A0.1,0.1,0,0,0,22,21h0l-0.3-.4a0.6,0.6,0,0,0-.4-0.1H20.9l-0.1-.1-0.2-.1-0.5.1-0.3-.2c-0.1,0-.3-0.1-0.4-0.1l-0.3.3H18.8l-0.3.1a0.38,0.38,0,0,0-.2.2,0.35,0.35,0,0,1-.1.2l-0.1.2-0.1.4-0.2.1-0.1.4-0.3.1-0.4.6c0,0.1-.2.1-0.2,0.1l-0.6-.3c-0.1,0-.6-0.5-0.7-0.5l-0.7-.1a0.53,0.53,0,0,1-.3-0.2L13.9,21a0.77,0.77,0,0,1-.3-0.2L13,20.3V20l-0.6-2.2a0.22,0.22,0,0,0-.2-0.2l-1.1-.9a0.22,0.22,0,0,1-.2-0.2l-0.7-.7a0.38,0.38,0,0,0-.2-0.2l-0.2-.4A0.22,0.22,0,0,0,9.6,15l-0.3-.2a0.22,0.22,0,0,1-.2-0.2l-0.2-.4A0.22,0.22,0,0,0,8.7,14l-0.3-.2V32.9H32.2Z"></path><path id="Path_58" data-name="Path 58" class="cls-1" d="M39.1,0H25.6L25.5,5.9c0,0.1.1,0,.2,0h0c0.1,0,.1-0.1.2,0l0.4,0.4a0.53,0.53,0,0,0,.3.2c0.1,0,.2-0.2.2-0.1l0.1,0.1c0.1,0,.2.1,0.3,0.1s0.2-.2.2-0.1l0.2,0.1a0.2,0.2,0,0,1,.1.2V6.9c0,0.1,0,.1.1,0.1L28,7.1h0.5l0.1,0.1a0.35,0.35,0,0,1,.2.1L29,7.2c0.1,0,.2-0.1.2,0l0.1,0.1a0.53,0.53,0,0,0,.3.2l0.1-.1a0.31,0.31,0,0,1,.2-0.1h0.2c0.1,0,.2,0,0.2.1V7.5c0,0.1,0,.2.1,0.2h0.1a0.22,0.22,0,0,1,.2.2s0,0.2.1,0.2h0.4l0.3-.3h0.2c0,0.1.1,0.1,0.2,0.1a0.37,0.37,0,0,1,.3.1c0,0.1,0,.1.1,0.1L32.6,8c0.1-.1.2-0.2,0.2-0.1V8a0.32,0.32,0,0,0,0,.3c0.1,0.1.2,0.2,0.3,0.1l0.1-.2a0.53,0.53,0,0,1,.2-0.3V7.7h0.3c0.1,0,.1.2,0.1,0.2H34c0.1,0.1.1,0,.2,0s-0.1-.3.1-0.3a1,1,0,0,1,.3.4,0.53,0.53,0,0,1,.3.2H35a0.1,0.1,0,0,0,.2,0c0-.1,0-0.1.1-0.1s0.2,0.1.2,0a0.22,0.22,0,0,1,.2-0.2L36,7.8a0.35,0.35,0,0,0,.2-0.1l0.1,0.1c0.1,0,.2.1,0.2,0l0.1-.3,0.2-.1H37c0,0.1.1,0.1,0.2,0.1h0.2a0.35,0.35,0,0,0,.2-0.1l0.1-.1a0.31,0.31,0,0,1,.2-0.1l0.4,0.2a0.22,0.22,0,0,1,.2.2l0.1,0.1a0.31,0.31,0,0,0,.2.1L39.6,8a0.35,0.35,0,0,1,.2.1h0a0.31,0.31,0,0,0,.2.1l0.2-.1h0.4a0.22,0.22,0,0,1,.2.2V9.6c0,0.1.1,0.6,0.1,0.7l0.2,2.8c0,0.1.4,0.1,0.4,0.2l0.1,0.4a0.76,0.76,0,0,1,.1.4c0,0.1.2,0.1,0.2,0.2v0.1c0,0.1,0,.2.1,0.2l0.1,0.1c0.1,0,.1.1,0.1,0.2a0.31,0.31,0,0,0,.1.2l0.1,0.1a0.2,0.2,0,0,1,.1.2,0.31,0.31,0,0,0,.1.2l0.1,0.1a0.1,0.1,0,0,0,.1.1h0.1V16h0v0.3l-0.1.1v0.2l-0.1.2a0.35,0.35,0,0,1-.1.2l-0.3.5c0,0.1.1,0.3,0.1,0.4l-0.1.2,0.1,0.2a4.33,4.33,0,0,0,.1.5c0,0.1-.1.2-0.1,0.3s-0.2.3-.2,0.4a4.33,4.33,0,0,0-.1.5c0,0.1.2,0.1,0.1,0.1h0c-0.1.1,0.1,0.2,0.1,0.2s-0.4.1-.4,0.1a0.76,0.76,0,0,0-.4.2H41.2c-0.1,0-.2.3-0.3,0.3H40.5l-0.3.4c-0.1,0-.2.2-0.3,0s0.2-.3.3-0.3,0.3-.1.2-0.2a0.49,0.49,0,0,0-.3-0.1,1.49,1.49,0,0,1-.6.1V20.6a0.76,0.76,0,0,0,.2-0.4c-0.1-.1-0.2,0-0.3.2s-0.4-.1-0.4.1,0.1,0.1.1,0.2S39,20.9,39,21s0.1,0,.2.1a0.78,0.78,0,0,1,.3.4,0.35,0.35,0,0,0,.1.2s-0.3.3-1,.9a12.41,12.41,0,0,1-1,.8l-0.9.6s-1.1.8-1.2,0.6,1.8-1.2,1.7-1.3-0.3.1-.3,0.1l-0.4.3a0.77,0.77,0,0,1-.3.2,0.38,0.38,0,0,0-.2.2H35.8a0.1,0.1,0,0,1-.1-0.1h0a1.09,1.09,0,0,0,.1-0.5,1.38,1.38,0,0,0-.4.3l-0.2.2-0.1.1s-0.4-.5-0.5-0.3a0.6,0.6,0,0,0,.1.4c0,0.1.4,0.2,0.4,0.3s0.2,0.3.1,0.3l-0.1.2c-0.1,0-.2.2-0.3,0.2a3.39,3.39,0,0,1-.6.6l-0.2.1c-0.1,0-.1.2-0.1,0.2a1.9,1.9,0,0,0-.5.8c-0.1,0-.1.1-0.1,0.2l-0.4.8a3.09,3.09,0,0,0-.2.8,0.1,0.1,0,0,0,.1.1h0a2.27,2.27,0,0,1,.1.4l0.2,0.9a1,1,0,0,0,.1.3h0a1.27,1.27,0,0,0,.1.6l1.4,1.8h3.9c7.8,0,14.2-7.4,14.2-16.5C53.3,7.3,46.9,0,39.1,0Z"></path></g><g id="Group_59" data-name="Group 59"><path id="Path_59" data-name="Path 59" class="cls-1" d="M63,21.1H60.4V13.3H58.2V11.1h6.9v2.2H63v7.8h0Z"></path><path id="Path_60" data-name="Path 60" class="cls-1" d="M69.3,13.3V15h2.9v2.2H69.3v1.7h3.1v2.2H66.7v-10h5.7v2.2H69.3Z"></path><path id="Path_61" data-name="Path 61" class="cls-1" d="M73.5,11.1h3.2l1.5,2.6,1.5-2.6h3.2l-3.2,4.6L83.4,21H80.3l-2.1-3.3L75.9,21H72.8l3.9-5.3Z"></path><path id="Path_62" data-name="Path 62" class="cls-1" d="M87,19.4l-0.7,1.7H83.5l3.8-10h2.8l3.8,10H91.2l-0.6-1.7H87Zm1.8-5.2h0l-1.1,3.2h2.2Z"></path><path id="Path_63" data-name="Path 63" class="cls-1" d="M100.3,13.7a2.84,2.84,0,0,0-1.7-.7,1,1,0,0,0-1.1.8c0,0.6.7,0.8,1.2,1L99.4,15c1.4,0.4,2.5,1.1,2.5,2.7a3.39,3.39,0,0,1-1,2.7,4.1,4.1,0,0,1-2.8.9,6.06,6.06,0,0,1-3.5-1.1l1.1-2.1a3.25,3.25,0,0,0,2.3,1,1.15,1.15,0,0,0,1.3-1c0-.7-1-1-1.6-1.1-1.6-.5-2.7-0.9-2.7-2.8a3.18,3.18,0,0,1,3-3.31H98.4a6.81,6.81,0,0,1,3.1.8Z"></path><path id="Path_64" data-name="Path 64" class="cls-1" d="M107.5,11.1h3.7a5,5,0,0,1,0,10h-3.7v-10Zm2.6,7.8h0.6a2.8,2.8,0,0,0,.1-5.6h-0.6v5.6h-0.1Z"></path><path id="Path_65" data-name="Path 65" class="cls-1" d="M120.2,21.1h-2.6v-10h2.6v10Z"></path><path id="Path_66" data-name="Path 66" class="cls-1" d="M127.6,13.7a2.84,2.84,0,0,0-1.7-.7,1,1,0,0,0-1.1.8c0,0.6.7,0.8,1.2,1l0.7,0.2c1.4,0.4,2.5,1.1,2.5,2.7a3.39,3.39,0,0,1-1,2.7,4.1,4.1,0,0,1-2.8.9,6.06,6.06,0,0,1-3.5-1.1l1.1-2.1a3.25,3.25,0,0,0,2.3,1,1.15,1.15,0,0,0,1.3-1c0-.7-1-1-1.6-1.1-1.6-.5-2.7-0.9-2.7-2.8a3.18,3.18,0,0,1,3-3.31h0.36a6.81,6.81,0,0,1,3.1.8Z"></path><path id="Path_67" data-name="Path 67" class="cls-1" d="M130.4,11.1h4c2.1,0,3.6,1,3.6,3.3s-1.3,3.4-3.5,3.4H133v3.3h-2.6v-10h0Zm2.6,4.6h0.4c0.9,0,1.9,0,1.9-1.2s-0.9-1.3-1.9-1.3H133v2.5h0Z"></path><path id="Path_68" data-name="Path 68" class="cls-1" d="M150.1,15.9a5.52,5.52,0,1,1-5.92-5.08l0.42,0a5.3,5.3,0,0,1,5.5,5.09h0Zm-8.4,0a2.81,2.81,0,1,0,5.6,0,2.76,2.76,0,0,0-2.8-2.6A2.83,2.83,0,0,0,141.7,15.9Z"></path><path id="Path_69" data-name="Path 69" class="cls-1" d="M156.5,13.7a2.84,2.84,0,0,0-1.7-.7,1,1,0,0,0-1.1.8c0,0.6.7,0.8,1.2,1l0.7,0.2c1.4,0.4,2.5,1.1,2.5,2.7a3.4,3.4,0,0,1-1,2.7,4.1,4.1,0,0,1-2.8.9,6.06,6.06,0,0,1-3.5-1.1l1.1-2.1a3.25,3.25,0,0,0,2.3,1,1.15,1.15,0,0,0,1.3-1c0-.7-1-1-1.6-1.1-1.6-.5-2.7-0.9-2.7-2.8a3.18,3.18,0,0,1,3-3.31h0.36a6.81,6.81,0,0,1,3.1.8Z"></path><path id="Path_70" data-name="Path 70" class="cls-1" d="M161.8,19.4l-0.7,1.7h-2.8l3.8-10h2.8l3.8,10h-2.8l-0.6-1.7h-3.5Zm1.8-5.2h0l-1.1,3.2h2.2Z"></path><path id="Path_71" data-name="Path 71" class="cls-1" d="M172.3,18.9h3.1v2.2h-5.7v-10h2.6v7.8Z"></path><path id="Path_72" data-name="Path 72" class="cls-1" d="M185.6,13.7a2.84,2.84,0,0,0-1.7-.7,1,1,0,0,0-1.1.8c0,0.6.7,0.8,1.2,1l0.7,0.2c1.4,0.4,2.5,1.1,2.5,2.7a3.4,3.4,0,0,1-1,2.7,4.1,4.1,0,0,1-2.8.9,6.06,6.06,0,0,1-3.5-1.1l1.1-2.1a3.25,3.25,0,0,0,2.3,1,1.15,1.15,0,0,0,1.3-1c0-.7-1-1-1.6-1.1-1.6-.5-2.7-0.9-2.7-2.8a3.18,3.18,0,0,1,3-3.31h0.36a6.81,6.81,0,0,1,3.1.8Z"></path><path id="Path_73" data-name="Path 73" class="cls-1" d="M187,11.1h3.1l1.9,2.7,1.9-2.7H197l-3.7,5.2v4.8h-2.6V16.3Z"></path><path id="Path_74" data-name="Path 74" class="cls-1" d="M202.1,13.7a2.84,2.84,0,0,0-1.7-.7,1,1,0,0,0-1.1.8c0,0.6.7,0.8,1.2,1l0.7,0.2c1.4,0.4,2.5,1.1,2.5,2.7a3.4,3.4,0,0,1-1,2.7,4.1,4.1,0,0,1-2.8.9,6.06,6.06,0,0,1-3.5-1.1l1.1-2.1a3.25,3.25,0,0,0,2.3,1,1.15,1.15,0,0,0,1.3-1c0-.7-1-1-1.6-1.1-1.6-.5-2.7-0.9-2.7-2.8a3.18,3.18,0,0,1,3-3.31h0.36a6.81,6.81,0,0,1,3.1.8Z"></path><path id="Path_75" data-name="Path 75" class="cls-1" d="M208.8,21.1h-2.6V13.3h-2.1V11.1H211v2.2h-2.1v7.8h-0.1Z"></path><path id="Path_76" data-name="Path 76" class="cls-1" d="M214.6,13.3V15h2.9v2.2h-2.9v1.7h3.1v2.2H212v-10h5.7v2.2h-3.1Z"></path><path id="Path_77" data-name="Path 77" class="cls-1" d="M220.7,11.1h2.6l2,5.3,2.1-5.3H230l1.5,10h-2.6l-0.7-5.7h0l-2.4,5.7h-1l-2.3-5.7h0l-0.8,5.7h-2.6Z"></path><path id="Path_78" data-name="Path 78" class="cls-1" d="M238.4,13.7a2.84,2.84,0,0,0-1.7-.7,1,1,0,0,0-1.1.8c0,0.6.7,0.8,1.2,1l0.7,0.2c1.4,0.4,2.5,1.1,2.5,2.7a3.4,3.4,0,0,1-1,2.7,4.1,4.1,0,0,1-2.8.9,6.06,6.06,0,0,1-3.5-1.1l1.1-2.1a3.25,3.25,0,0,0,2.3,1,1.15,1.15,0,0,0,1.3-1c0-.7-1-1-1.6-1.1-1.6-.5-2.7-0.9-2.7-2.8a3.18,3.18,0,0,1,3-3.31h0.36a6.81,6.81,0,0,1,3.1.8Z"></path></g></g></svg>